{
	"asset":{
		"generator":"Khronos glTF Blender I/O v4.1.62",
		"version":"2.0"
	},
	"scene":0,
	"scenes":[
		{
			"name":"Scene",
			"nodes":[
				0
			]
		}
	],
	"nodes":[
		{
			"mesh":0,
			"name":"Suzanne",
			"rotation":[
				-0.3826834559440613,
				0,
				0,
				0.9238795638084412
			],
			"translation":[
				0,
				0.5,
				0
			]
		}
	],
	"meshes":[
		{
			"name":"Suzanne",
			"primitives":[
				{
					"attributes":{
						"POSITION":0,
						"NORMAL":1,
						"TEXCOORD_0":2
					},
					"indices":3
				}
			]
		}
	],
	"accessors":[
		{
			"bufferView":0,
			"componentType":5126,
			"count":47232,
			"max":[
				1.328185796737671,
				0.9392362236976624,
				0.8224414587020874
			],
			"min":[
				-1.328185796737671,
				-0.971822202205658,
				-0.7782661318778992
			],
			"type":"VEC3"
		},
		{
			"bufferView":1,
			"componentType":5126,
			"count":47232,
			"type":"VEC3"
		},
		{
			"bufferView":2,
			"componentType":5126,
			"count":47232,
			"type":"VEC2"
		},
		{
			"bufferView":3,
			"componentType":5123,
			"count":47232,
			"type":"SCALAR"
		}
	],
	"bufferViews":[
		{
			"buffer":0,
			"byteLength":566784,
			"byteOffset":0,
			"target":34962
		},
		{
			"buffer":0,
			"byteLength":566784,
			"byteOffset":566784,
			"target":34962
		},
		{
			"buffer":0,
			"byteLength":377856,
			"byteOffset":1133568,
			"target":34962
		},
		{
			"buffer":0,
			"byteLength":94464,
			"byteOffset":1511424,
			"target":34963
		}
	],
	"buffers":[
		{
			"byteLength":1605888,
			"uri":"monke.bin"
		}
	]
}
