{
	"asset":{
		"generator":"Khronos glTF Blender I/O v4.1.62",
		"version":"2.0"
	},
	"scene":0,
	"scenes":[
		{
			"name":"Scene",
			"nodes":[
				0,
				1,
				2,
				3,
				4,
				5,
				6,
				7,
				8,
				9,
				10,
				11
			]
		}
	],
	"nodes":[
		{
			"mesh":0,
			"name":"Cube"
		},
		{
			"mesh":1,
			"name":"Cube.001"
		},
		{
			"mesh":2,
			"name":"Cube.002"
		},
		{
			"mesh":3,
			"name":"Cube.003"
		},
		{
			"mesh":4,
			"name":"Cube.004"
		},
		{
			"mesh":5,
			"name":"Cube.005"
		},
		{
			"mesh":6,
			"name":"Cube.006"
		},
		{
			"mesh":7,
			"name":"Cube.007"
		},
		{
			"mesh":8,
			"name":"Cube.008"
		},
		{
			"mesh":9,
			"name":"Cube.009"
		},
		{
			"mesh":10,
			"name":"Cube.010"
		},
		{
			"mesh":11,
			"name":"Cube.011"
		}
	],
	"meshes":[
		{
			"name":"Cube.001",
			"primitives":[
				{
					"attributes":{
						"POSITION":0,
						"NORMAL":1,
						"TEXCOORD_0":2
					},
					"indices":3
				}
			]
		},
		{
			"name":"Cube.002",
			"primitives":[
				{
					"attributes":{
						"POSITION":4,
						"NORMAL":5,
						"TEXCOORD_0":6
					},
					"indices":7
				}
			]
		},
		{
			"name":"Cube.003",
			"primitives":[
				{
					"attributes":{
						"POSITION":8,
						"NORMAL":9,
						"TEXCOORD_0":10
					},
					"indices":11
				}
			]
		},
		{
			"name":"Cube.004",
			"primitives":[
				{
					"attributes":{
						"POSITION":12,
						"NORMAL":13,
						"TEXCOORD_0":14
					},
					"indices":15
				}
			]
		},
		{
			"name":"Cube.005",
			"primitives":[
				{
					"attributes":{
						"POSITION":16,
						"NORMAL":17,
						"TEXCOORD_0":18
					},
					"indices":3
				}
			]
		},
		{
			"name":"Cube.006",
			"primitives":[
				{
					"attributes":{
						"POSITION":19,
						"NORMAL":20,
						"TEXCOORD_0":21
					},
					"indices":22
				}
			]
		},
		{
			"name":"Cube.007",
			"primitives":[
				{
					"attributes":{
						"POSITION":23,
						"NORMAL":24,
						"TEXCOORD_0":25
					},
					"indices":3
				}
			]
		},
		{
			"name":"Cube.008",
			"primitives":[
				{
					"attributes":{
						"POSITION":26,
						"NORMAL":27,
						"TEXCOORD_0":28
					},
					"indices":11
				}
			]
		},
		{
			"name":"Cube.009",
			"primitives":[
				{
					"attributes":{
						"POSITION":29,
						"NORMAL":30,
						"TEXCOORD_0":31
					},
					"indices":22
				}
			]
		},
		{
			"name":"Cube.010",
			"primitives":[
				{
					"attributes":{
						"POSITION":32,
						"NORMAL":33,
						"TEXCOORD_0":34
					},
					"indices":11
				}
			]
		},
		{
			"name":"Cube.011",
			"primitives":[
				{
					"attributes":{
						"POSITION":35,
						"NORMAL":36,
						"TEXCOORD_0":37
					},
					"indices":38
				}
			]
		},
		{
			"name":"Cube.012",
			"primitives":[
				{
					"attributes":{
						"POSITION":39,
						"NORMAL":40,
						"TEXCOORD_0":41
					},
					"indices":3
				}
			]
		}
	],
	"accessors":[
		{
			"bufferView":0,
			"componentType":5126,
			"count":3,
			"max":[
				1,
				-1,
				1
			],
			"min":[
				-1,
				-1,
				-1
			],
			"type":"VEC3"
		},
		{
			"bufferView":1,
			"componentType":5126,
			"count":3,
			"type":"VEC3"
		},
		{
			"bufferView":2,
			"componentType":5126,
			"count":3,
			"type":"VEC2"
		},
		{
			"bufferView":3,
			"componentType":5123,
			"count":3,
			"type":"SCALAR"
		},
		{
			"bufferView":4,
			"componentType":5126,
			"count":3,
			"max":[
				1,
				1,
				1
			],
			"min":[
				-1,
				1,
				-1
			],
			"type":"VEC3"
		},
		{
			"bufferView":5,
			"componentType":5126,
			"count":3,
			"type":"VEC3"
		},
		{
			"bufferView":6,
			"componentType":5126,
			"count":3,
			"type":"VEC2"
		},
		{
			"bufferView":7,
			"componentType":5123,
			"count":3,
			"type":"SCALAR"
		},
		{
			"bufferView":8,
			"componentType":5126,
			"count":3,
			"max":[
				-1,
				1,
				1
			],
			"min":[
				-1,
				-1,
				-1
			],
			"type":"VEC3"
		},
		{
			"bufferView":9,
			"componentType":5126,
			"count":3,
			"type":"VEC3"
		},
		{
			"bufferView":10,
			"componentType":5126,
			"count":3,
			"type":"VEC2"
		},
		{
			"bufferView":11,
			"componentType":5123,
			"count":3,
			"type":"SCALAR"
		},
		{
			"bufferView":12,
			"componentType":5126,
			"count":3,
			"max":[
				1,
				1,
				-1
			],
			"min":[
				-1,
				-1,
				-1
			],
			"type":"VEC3"
		},
		{
			"bufferView":13,
			"componentType":5126,
			"count":3,
			"type":"VEC3"
		},
		{
			"bufferView":14,
			"componentType":5126,
			"count":3,
			"type":"VEC2"
		},
		{
			"bufferView":15,
			"componentType":5123,
			"count":3,
			"type":"SCALAR"
		},
		{
			"bufferView":16,
			"componentType":5126,
			"count":3,
			"max":[
				1,
				1,
				1
			],
			"min":[
				1,
				-1,
				-1
			],
			"type":"VEC3"
		},
		{
			"bufferView":17,
			"componentType":5126,
			"count":3,
			"type":"VEC3"
		},
		{
			"bufferView":18,
			"componentType":5126,
			"count":3,
			"type":"VEC2"
		},
		{
			"bufferView":19,
			"componentType":5126,
			"count":3,
			"max":[
				-1,
				1,
				1
			],
			"min":[
				-1,
				-1,
				-1
			],
			"type":"VEC3"
		},
		{
			"bufferView":20,
			"componentType":5126,
			"count":3,
			"type":"VEC3"
		},
		{
			"bufferView":21,
			"componentType":5126,
			"count":3,
			"type":"VEC2"
		},
		{
			"bufferView":22,
			"componentType":5123,
			"count":3,
			"type":"SCALAR"
		},
		{
			"bufferView":23,
			"componentType":5126,
			"count":3,
			"max":[
				1,
				1,
				-1
			],
			"min":[
				-1,
				-1,
				-1
			],
			"type":"VEC3"
		},
		{
			"bufferView":24,
			"componentType":5126,
			"count":3,
			"type":"VEC3"
		},
		{
			"bufferView":25,
			"componentType":5126,
			"count":3,
			"type":"VEC2"
		},
		{
			"bufferView":26,
			"componentType":5126,
			"count":3,
			"max":[
				1,
				-1,
				1
			],
			"min":[
				-1,
				-1,
				-1
			],
			"type":"VEC3"
		},
		{
			"bufferView":27,
			"componentType":5126,
			"count":3,
			"type":"VEC3"
		},
		{
			"bufferView":28,
			"componentType":5126,
			"count":3,
			"type":"VEC2"
		},
		{
			"bufferView":29,
			"componentType":5126,
			"count":3,
			"max":[
				1,
				1,
				1
			],
			"min":[
				-1,
				-1,
				1
			],
			"type":"VEC3"
		},
		{
			"bufferView":30,
			"componentType":5126,
			"count":3,
			"type":"VEC3"
		},
		{
			"bufferView":31,
			"componentType":5126,
			"count":3,
			"type":"VEC2"
		},
		{
			"bufferView":32,
			"componentType":5126,
			"count":3,
			"max":[
				1,
				1,
				1
			],
			"min":[
				-1,
				-1,
				1
			],
			"type":"VEC3"
		},
		{
			"bufferView":33,
			"componentType":5126,
			"count":3,
			"type":"VEC3"
		},
		{
			"bufferView":34,
			"componentType":5126,
			"count":3,
			"type":"VEC2"
		},
		{
			"bufferView":35,
			"componentType":5126,
			"count":3,
			"max":[
				1,
				1,
				1
			],
			"min":[
				-1,
				1,
				-1
			],
			"type":"VEC3"
		},
		{
			"bufferView":36,
			"componentType":5126,
			"count":3,
			"type":"VEC3"
		},
		{
			"bufferView":37,
			"componentType":5126,
			"count":3,
			"type":"VEC2"
		},
		{
			"bufferView":38,
			"componentType":5123,
			"count":3,
			"type":"SCALAR"
		},
		{
			"bufferView":39,
			"componentType":5126,
			"count":3,
			"max":[
				1,
				1,
				1
			],
			"min":[
				1,
				-1,
				-1
			],
			"type":"VEC3"
		},
		{
			"bufferView":40,
			"componentType":5126,
			"count":3,
			"type":"VEC3"
		},
		{
			"bufferView":41,
			"componentType":5126,
			"count":3,
			"type":"VEC2"
		}
	],
	"bufferViews":[
		{
			"buffer":0,
			"byteLength":36,
			"byteOffset":0,
			"target":34962
		},
		{
			"buffer":0,
			"byteLength":36,
			"byteOffset":36,
			"target":34962
		},
		{
			"buffer":0,
			"byteLength":24,
			"byteOffset":72,
			"target":34962
		},
		{
			"buffer":0,
			"byteLength":6,
			"byteOffset":96,
			"target":34963
		},
		{
			"buffer":0,
			"byteLength":36,
			"byteOffset":104,
			"target":34962
		},
		{
			"buffer":0,
			"byteLength":36,
			"byteOffset":140,
			"target":34962
		},
		{
			"buffer":0,
			"byteLength":24,
			"byteOffset":176,
			"target":34962
		},
		{
			"buffer":0,
			"byteLength":6,
			"byteOffset":200,
			"target":34963
		},
		{
			"buffer":0,
			"byteLength":36,
			"byteOffset":208,
			"target":34962
		},
		{
			"buffer":0,
			"byteLength":36,
			"byteOffset":244,
			"target":34962
		},
		{
			"buffer":0,
			"byteLength":24,
			"byteOffset":280,
			"target":34962
		},
		{
			"buffer":0,
			"byteLength":6,
			"byteOffset":304,
			"target":34963
		},
		{
			"buffer":0,
			"byteLength":36,
			"byteOffset":312,
			"target":34962
		},
		{
			"buffer":0,
			"byteLength":36,
			"byteOffset":348,
			"target":34962
		},
		{
			"buffer":0,
			"byteLength":24,
			"byteOffset":384,
			"target":34962
		},
		{
			"buffer":0,
			"byteLength":6,
			"byteOffset":408,
			"target":34963
		},
		{
			"buffer":0,
			"byteLength":36,
			"byteOffset":416,
			"target":34962
		},
		{
			"buffer":0,
			"byteLength":36,
			"byteOffset":452,
			"target":34962
		},
		{
			"buffer":0,
			"byteLength":24,
			"byteOffset":488,
			"target":34962
		},
		{
			"buffer":0,
			"byteLength":36,
			"byteOffset":512,
			"target":34962
		},
		{
			"buffer":0,
			"byteLength":36,
			"byteOffset":548,
			"target":34962
		},
		{
			"buffer":0,
			"byteLength":24,
			"byteOffset":584,
			"target":34962
		},
		{
			"buffer":0,
			"byteLength":6,
			"byteOffset":608,
			"target":34963
		},
		{
			"buffer":0,
			"byteLength":36,
			"byteOffset":616,
			"target":34962
		},
		{
			"buffer":0,
			"byteLength":36,
			"byteOffset":652,
			"target":34962
		},
		{
			"buffer":0,
			"byteLength":24,
			"byteOffset":688,
			"target":34962
		},
		{
			"buffer":0,
			"byteLength":36,
			"byteOffset":712,
			"target":34962
		},
		{
			"buffer":0,
			"byteLength":36,
			"byteOffset":748,
			"target":34962
		},
		{
			"buffer":0,
			"byteLength":24,
			"byteOffset":784,
			"target":34962
		},
		{
			"buffer":0,
			"byteLength":36,
			"byteOffset":808,
			"target":34962
		},
		{
			"buffer":0,
			"byteLength":36,
			"byteOffset":844,
			"target":34962
		},
		{
			"buffer":0,
			"byteLength":24,
			"byteOffset":880,
			"target":34962
		},
		{
			"buffer":0,
			"byteLength":36,
			"byteOffset":904,
			"target":34962
		},
		{
			"buffer":0,
			"byteLength":36,
			"byteOffset":940,
			"target":34962
		},
		{
			"buffer":0,
			"byteLength":24,
			"byteOffset":976,
			"target":34962
		},
		{
			"buffer":0,
			"byteLength":36,
			"byteOffset":1000,
			"target":34962
		},
		{
			"buffer":0,
			"byteLength":36,
			"byteOffset":1036,
			"target":34962
		},
		{
			"buffer":0,
			"byteLength":24,
			"byteOffset":1072,
			"target":34962
		},
		{
			"buffer":0,
			"byteLength":6,
			"byteOffset":1096,
			"target":34963
		},
		{
			"buffer":0,
			"byteLength":36,
			"byteOffset":1104,
			"target":34962
		},
		{
			"buffer":0,
			"byteLength":36,
			"byteOffset":1140,
			"target":34962
		},
		{
			"buffer":0,
			"byteLength":24,
			"byteOffset":1176,
			"target":34962
		}
	],
	"buffers":[
		{
			"byteLength":1200,
			"uri":"nicer_cube.bin"
		}
	]
}
